<svg xmlns="http://www.w3.org/2000/svg" viewBox="0 0 500 500"><g id="freepik--background-complete--inject-100"><polygon points="47.48 209.13 98.11 208.89 148.74 208.8 250 208.63 351.26 208.8 401.89 208.89 452.52 209.13 401.89 209.38 351.26 209.47 250 209.63 148.74 209.46 98.11 209.38 47.48 209.13" style="fill:#ebebeb"></polygon><polygon points="47.48 243.72 98.11 243.47 148.74 243.39 250 243.22 351.26 243.38 401.89 243.47 452.52 243.72 401.89 243.96 351.26 244.05 250 244.22 148.74 244.05 98.11 243.96 47.48 243.72" style="fill:#ebebeb"></polygon><polygon points="47.48 174.58 98.11 174.34 148.74 174.25 250 174.08 351.26 174.25 401.89 174.34 452.52 174.58 401.89 174.82 351.26 174.91 250 175.08 148.74 174.91 98.11 174.82 47.48 174.58" style="fill:#ebebeb"></polygon><polygon points="47.48 278.3 98.11 278.06 148.74 277.97 250 277.8 351.26 277.97 401.89 278.06 452.52 278.3 401.89 278.55 351.26 278.63 250 278.8 148.74 278.63 98.11 278.55 47.48 278.3" style="fill:#ebebeb"></polygon><polygon points="47.48 312.89 98.11 312.64 148.74 312.55 250 312.39 351.26 312.55 401.89 312.64 452.52 312.89 401.89 313.13 351.26 313.22 250 313.38 148.74 313.22 98.11 313.13 47.48 312.89" style="fill:#ebebeb"></polygon><polygon points="47.48 347.47 98.11 347.23 148.74 347.14 250 346.97 351.26 347.14 401.89 347.23 452.52 347.47 401.89 347.71 351.26 347.8 250 347.97 148.74 347.8 98.11 347.71 47.48 347.47" style="fill:#ebebeb"></polygon><polygon points="284.58 139.55 284.83 169.62 284.92 199.7 285.08 259.84 284.92 319.98 284.83 350.06 284.58 380.13 284.34 350.06 284.25 319.98 284.08 259.84 284.25 199.7 284.34 169.62 284.58 139.55" style="fill:#ebebeb"></polygon><polygon points="250 139.55 250.24 169.62 250.33 199.7 250.5 259.84 250.33 319.98 250.25 350.06 250 380.13 249.75 350.06 249.67 319.98 249.5 259.84 249.67 199.7 249.76 169.62 250 139.55" style="fill:#ebebeb"></polygon><polygon points="215.42 139.55 215.66 169.62 215.75 199.7 215.91 259.84 215.75 319.98 215.66 350.06 215.42 380.13 215.17 350.06 215.08 319.98 214.92 259.84 215.08 199.7 215.17 169.62 215.42 139.55" style="fill:#ebebeb"></polygon><polygon points="180.83 139.55 181.07 169.62 181.16 199.7 181.33 259.84 181.16 319.98 181.08 350.06 180.83 380.13 180.59 350.06 180.5 319.98 180.33 259.84 180.5 199.7 180.59 169.62 180.83 139.55" style="fill:#ebebeb"></polygon><polygon points="388.34 139.55 388.58 169.62 388.67 199.7 388.84 259.84 388.67 319.98 388.58 350.06 388.34 380.13 388.09 350.06 388 319.98 387.84 259.84 388.01 199.7 388.09 169.62 388.34 139.55" style="fill:#ebebeb"></polygon><polygon points="353.75 139.55 354 169.62 354.08 199.7 354.25 259.84 354.08 319.98 354 350.06 353.75 380.13 353.51 350.06 353.42 319.98 353.25 259.84 353.42 199.7 353.51 169.62 353.75 139.55" style="fill:#ebebeb"></polygon><polygon points="319.17 139.55 319.41 169.62 319.5 199.7 319.67 259.84 319.5 319.98 319.41 350.06 319.17 380.13 318.92 350.06 318.84 319.98 318.67 259.84 318.84 199.7 318.93 169.62 319.17 139.55" style="fill:#ebebeb"></polygon><polygon points="422.92 139.55 423.16 169.62 423.25 199.7 423.42 259.84 423.25 319.98 423.17 350.06 422.92 380.13 422.68 350.06 422.59 319.98 422.42 259.84 422.59 199.7 422.68 169.62 422.92 139.55" style="fill:#ebebeb"></polygon><polygon points="388.34 139.55 388.58 169.62 388.67 199.7 388.84 259.84 388.67 319.98 388.58 350.06 388.34 380.13 388.09 350.06 388 319.98 387.84 259.84 388.01 199.7 388.09 169.62 388.34 139.55" style="fill:#ebebeb"></polygon><polygon points="146.25 139.55 146.49 169.62 146.58 199.7 146.75 259.84 146.58 319.98 146.49 350.06 146.25 380.13 146 350.06 145.91 319.98 145.75 259.84 145.92 199.7 146 169.62 146.25 139.55" style="fill:#ebebeb"></polygon><polygon points="111.66 139.55 111.91 169.62 111.99 199.7 112.16 259.84 112 319.98 111.91 350.06 111.66 380.13 111.42 350.06 111.33 319.98 111.16 259.84 111.33 199.7 111.42 169.62 111.66 139.55" style="fill:#ebebeb"></polygon><polygon points="77.08 139.55 77.32 169.62 77.41 199.7 77.58 259.84 77.41 319.98 77.32 350.06 77.08 380.13 76.83 350.06 76.75 319.98 76.58 259.84 76.75 199.7 76.83 169.62 77.08 139.55" style="fill:#ebebeb"></polygon><rect x="46.74" y="57.71" width="160" height="12.31" style="fill:#ebebeb"></rect><path d="M187.21,183.93a10.41,10.41,0,0,1-7.48-3.74c-4.31-4.7-6.6-12.9-6-21.41.42-5.75,3.1-13.14,5.69-20.28s5.11-14.08,5.17-18.82l.71-56,3.43,0,0,1.31-2.12,0-.69,54.69c-.07,5-2.58,11.9-5.25,19.25-2.56,7.06-5.2,14.35-5.61,19.93-.6,8.16,1.56,16,5.64,20.42a9.08,9.08,0,0,0,6.53,3.32Z" style="fill:#ebebeb"></path><path d="M190.26,183.42a8.69,8.69,0,0,1-3,.51l0-1.31a9.13,9.13,0,0,0,6.61-3.15c4.19-4.34,6.55-12.1,6.16-20.27-.26-5.59-2.72-12.95-5.1-20.07-2.48-7.42-4.81-14.42-4.75-19.38l.7-54.68-2.12,0,0-1.31,3.42,0-.71,56c-.06,4.74,2.24,11.64,4.68,18.94s4.9,14.66,5.17,20.43c.41,8.51-2.09,16.65-6.52,21.24A12,12,0,0,1,190.26,183.42Z" style="fill:#ebebeb"></path><path d="M187.21,183.93a5.09,5.09,0,0,1-3.66-1.86c-3.66-3.9-5.77-13.23-5.24-23.21.3-5.73,2.07-13.11,3.79-20.25s3.41-14.14,3.47-18.92l.71-56,2.47,0,0,1.31-1.15,0-.7,54.69c-.07,4.92-1.73,11.86-3.5,19.2-1.71,7.09-3.47,14.41-3.76,20-.5,9.51,1.51,18.66,4.88,22.26a3.92,3.92,0,0,0,2.73,1.44Z" style="fill:#ebebeb"></path><path d="M188.66,183.69a4,4,0,0,1-1.45.24h-.65l1.53-120.21,3.12,0-.71,56c-.06,4.77,1.41,11.68,3,19s3.12,14.61,3.27,20.34c.27,10-2.07,19.27-5.83,23.08A6,6,0,0,1,188.66,183.69Zm-.77-1.14a4.48,4.48,0,0,0,2.1-1.3c3.46-3.51,5.71-12.61,5.45-22.12-.15-5.62-1.72-13-3.25-20.11-1.57-7.38-3.07-14.36-3-19.28l.7-54.69h-.5Z" style="fill:#ebebeb"></path><polygon points="183.15 61.1 182.59 105.31 193.84 105.45 194.41 60.99 183.15 61.1" style="fill:#a6a6a6"></polygon><rect x="124.37" y="92.65" width="4.75" height="60.04" style="fill:#ebebeb"></rect><path d="M139.6,150.07H113.88L112.57,186h28.35Zm-18.25,31.67h-2.67V155.2h2.67Zm6.72,0h-2.65V155.2h2.65Zm6.72,0h-2.66V155.2h2.66Z" style="fill:#ebebeb"></path><polygon points="121.92 61.1 121.35 105.31 132.61 105.45 133.18 60.99 121.92 61.1" style="fill:#a6a6a6"></polygon><path d="M67.39,120.88V92.12H59.91v87.79H96v-59Zm21.35,10.34a2.15,2.15,0,1,1,2.15-2.14A2.14,2.14,0,0,1,88.74,131.22Z" style="fill:#ebebeb"></path><polygon points="58.86 61.1 58.29 105.31 69.55 105.45 70.12 60.99 58.86 61.1" style="fill:#a6a6a6"></polygon><polygon points="295.35 179.72 458.02 179.72 463.26 57.71 290.11 57.71 295.35 179.72" style="fill:#ebebeb"></polygon><path d="M373.23,168.51H307.44l-4.29-99h70.08Zm-64.83-1h63.83v-97h-68Z" style="fill:#dbdbdb"></path><path d="M367.29,135.74h-6.83V100h6.83Zm-5.83-1h4.83V101h-4.83Z" style="fill:#dbdbdb"></path><path d="M445.93,168.51H380.14v-99h70.08Zm-64.79-1H445l4.2-97h-68Z" style="fill:#dbdbdb"></path><path d="M392.91,135.74h-6.83V100h6.83Zm-5.83-1h4.83V101h-4.83Z" style="fill:#dbdbdb"></path></g><g id="freepik--Shadow--inject-100"><ellipse cx="250" cy="429.99" rx="199.68" ry="13.25" style="fill:#ebebeb"></ellipse></g><g id="freepik--Table--inject-100"><polygon points="44.21 382.94 95.66 382.7 147.1 382.61 250 382.44 352.89 382.61 404.34 382.7 455.79 382.94 404.34 383.19 352.89 383.27 250 383.44 147.1 383.27 95.66 383.18 44.21 382.94" style="fill:#263238"></polygon></g><g id="freepik--Character--inject-100"><path d="M215.13,210.88c-6-2.8-23.37-1.88-30.7,5.38s-9.92,21.07-7.4,23,14.83,3.6,24.14.86S218.1,212.27,215.13,210.88Z" style="fill:#263238"></path><path d="M215.14,210.93c.22,0,.32-.35.08-.41-5.52-1.37-11.89-.81-17.52-.46-4.55.29-9.26.78-13.35,2.92A15.25,15.25,0,0,0,176.44,223c-1.26,4.86-1.88,10.94-.43,15.81,0,.14.29.16.28,0-.51-9.82-.24-21.62,10.35-25.89C195.63,209.3,205.76,210.89,215.14,210.93Z" style="fill:#263238"></path><path d="M178.48,237.08c-5.71-.52-22.47,6.85-27.23,16.88s.36,27.52,2.83,29.25,17-5.67,22.62-12.22c3.77-4.37,2.94-10.63,3-16.66C179.8,245.44,179.37,237.16,178.48,237.08Z" style="fill:#263238"></path><path d="M180.32,270.4c4-10.39.3-22.39-1.22-32.92,0-.11-.2-.1-.2,0,0,9.77,3.73,19.38,1.73,29.16-1.19,5.81-4.46,11-10,13.53-4.81,2.16-10.31,2.42-15.48,3.06-.34,0-.23.55.1.52C165.48,282.76,176.16,281.13,180.32,270.4Z" style="fill:#263238"></path><path d="M177.06,237.81c.31-.08.22-.56-.09-.49-8.72,2-19.43,5.34-25.43,12.4-6.49,7.65-3.91,17.73-1.57,26.45,0,.11.2.08.17,0-2.25-8.83-4.32-19.61,2.75-26.9C159,243,168.81,239.81,177.06,237.81Z" style="fill:#263238"></path><path d="M154.77,283.07c3,3,6.38,10.86,5.31,18.51-1.83,13.1,3.63,12.12,16.19,19.69,10.61,6.39,9,20,.91,24.45,0,0,6-6.81-.49-13.12-7.8-7.55-32-4.45-38.47-20.83C129.87,290.57,154.77,283.07,154.77,283.07Z" style="fill:#263238"></path><path d="M157.86,290.35c-.1-.21.27-.39.38-.17a19,19,0,0,1,2,6.58c.34,3-.5,5.87-.37,8.86.34,7.6,8.66,9.95,14.5,12.24,7.83,3.08,12.75,10,10.6,18.59a.1.1,0,0,1-.2-.05,14.94,14.94,0,0,0-4.71-14.76c-4.06-3.45-9.67-4.06-14.17-6.75-3.07-1.85-5.94-4.3-6.47-8a29.66,29.66,0,0,1,.3-6.17A21,21,0,0,0,157.86,290.35Z" style="fill:#263238"></path><path d="M152.19,283.92c.1,0,.17.11.08.15-5.94,3.06-12.16,6.06-15.52,12.2-3.61,6.61-2.19,14.81,2,20.81,4.71,6.71,12.08,6.51,19.43,7.33,5.32.6,10.62,1.6,15,4.86.13.1,0,.32-.17.24-7.35-4.32-15.35-4.24-23.53-5.42-6.68-1-11-4.74-13.54-11C130.36,299.41,139.79,288.7,152.19,283.92Z" style="fill:#263238"></path><path d="M211.55,204c-1.26-2.63-5.32-.61-4.05,2S212.82,206.62,211.55,204Z" style="fill:#B71E3A"></path><path d="M212.44,208.11c-1.27-2.62-5.33-.6-4.06,2S213.71,210.75,212.44,208.11Z" style="fill:#B71E3A"></path><path d="M214,212.06c-1.27-2.63-5.33-.61-4.06,2S215.31,214.7,214,212.06Z" style="fill:#B71E3A"></path><path d="M216.09,215.66c-1.27-2.63-5.33-.61-4.06,2S217.35,218.3,216.09,215.66Z" style="fill:#B71E3A"></path><path d="M218.78,218.93c-1.27-2.63-5.32-.61-4.06,2S220.05,221.56,218.78,218.93Z" style="fill:#B71E3A"></path><path d="M221.9,221.56c-1.27-2.63-5.33-.61-4.06,2S223.17,224.19,221.9,221.56Z" style="fill:#B71E3A"></path><path d="M232.49,257.5c17.69,21,32.4,47.81,40.23,54.28,4.1,3.39,63.37,8.27,70.1,9.56,10.26,2-5,50.82-11.94,48.92-4.5-1.23-71.53-6.53-84.14-20.63-9.7-10.86-25.2-57.78-29.38-78.43C212.72,248.26,225.43,249.12,232.49,257.5Z" style="fill:#c95f50"></path><path d="M326.32,319.19c20.4-4.18,42.89-5.81,62.71,3.15a10.71,10.71,0,0,1,5.24,4.71c9,3.86,9.83,9.25,9.83,9.25,7.24,6.14,7.37,11.77,7.37,11.77s10.46,4.65,8.7,11.44c-1.95,7.62-16.26-.4-26.82,0-24.21.94-58.36,9-65.31,10Z" style="fill:#c95f50"></path><path d="M367.29,342.67c7.13-.13,14.13-.45,21.24.39,7.8.91,15.16,3.1,22.7,5.14a.19.19,0,0,0,.12-.36c-13.06-5.85-30-7.7-44.07-5.49C366.94,342.4,366.93,342.68,367.29,342.67Z" style="fill:#263238"></path><path d="M364.6,328.14c6.95.26,19.15.79,39.42,8.37.06,0,.13-.08.06-.11-12.51-6.68-25.42-9.25-39.46-8.59C364.18,327.83,364.14,328.13,364.6,328.14Z" style="fill:#263238"></path><path d="M363.31,320.31c11.79.88,19.11,2.93,30.9,6.78.07,0,.13-.09.05-.12-12.94-5.78-18.29-6.41-31-7.07C362.84,319.88,362.85,320.27,363.31,320.31Z" style="fill:#263238"></path><path d="M361.22,358.84c-3,1.52-2.26,3.12,3.65,4.33s30.32,1,29.68,9.52-35.1,8.34-44.78,5.57-24.38-10.65-24.38-10.65C332.1,366.3,348.08,361.57,361.22,358.84Z" style="fill:#c95f50"></path><path d="M320.4,315l-8.12,57.24s-60.88-10-70.89-21.35S221,294.17,216,271.34s7.66-30.09,21.8-11.17,30.3,47.79,34,49.47S320.4,315,320.4,315Z" style="fill:#ebebeb"></path><path d="M327.53,314.39c-.14-.32-17.43-3.21-17.43-3.21s-15.4,27.61-15.36,30.91-.18,28.37.08,28.68,21.05,5.62,21.47,5,1.65-27.6,1.71-29.67S327.53,314.39,327.53,314.39Z" style="fill:#B71E3A"></path><path d="M296.29,369.22c-18.77-3.8-48.21-10.79-54.9-18.37-10-11.32-20.38-56.68-25.37-79.51-2.54-11.64-.5-19.23,4-21.36C230.66,266.24,274.16,332.76,296.29,369.22Z" style="fill:#c7c7c7"></path><path d="M241,382.94l-1.95-35.79s18.87-18.21,16.17-36c-1.36-9-15.49-47.23-26.17-61-10-12.91-31.31-8.41-40.28-3.18-34.52,20.13-72.28,69.46-94.91,136Z" style="fill:#ebebeb"></path><path d="M195.94,247.32a26.47,26.47,0,0,0,1.76,7.36,33.24,33.24,0,0,0,3.49,6.69,40.74,40.74,0,0,0,10.59,10.56,58.54,58.54,0,0,0,13.42,6.72l1.79.61.89.3.05,0s0,0,.28.13a1.15,1.15,0,0,1,.29.3,1.9,1.9,0,0,1,.17.28l.25.46c.59,1.19,1.08,2.36,1.56,3.56,1,2.38,1.82,4.78,2.63,7.21a130.69,130.69,0,0,1,4,14.83,82.48,82.48,0,0,1,1.78,15.3A41.91,41.91,0,0,1,236.53,337a23.52,23.52,0,0,1-3.94,6.84,20.43,20.43,0,0,1-6.17,5l.46-.66c-.44,2.91-.88,5.82-1.37,8.72l-1.43,8.71c-.46,2.9-1,5.8-1.49,8.7s-1,5.79-1.59,8.68c.27-2.93.6-5.85.92-8.78s.64-5.85,1-8.77l1.07-8.76c.34-2.92.73-5.83,1.14-8.74l.06-.44.4-.22a18.57,18.57,0,0,0,5.6-4.56,21.94,21.94,0,0,0,3.59-6.34,40.15,40.15,0,0,0,2.1-14.65c-.23-10-2.45-20-5.51-29.59q-1.15-3.61-2.53-7.13c-.46-1.17-.95-2.34-1.48-3.43l-.2-.39-.08-.13s-.06,0,.14.13.18.07.17.08l-.06,0-.91-.32-1.81-.64A58,58,0,0,1,211,273a39.47,39.47,0,0,1-10.5-11.2,33.33,33.33,0,0,1-3.23-7A24.7,24.7,0,0,1,195.94,247.32Z" style="fill:#263238"></path><path d="M195.28,281.07c-2.18,8.54-4.47,17.05-6.77,25.55l-7,25.48-7.25,25.42-3.7,12.68-3.81,12.66,3.33-12.79,3.44-12.76,7-25.48,7.25-25.41C190.23,298,192.7,289.5,195.28,281.07Z" style="fill:#263238"></path><path d="M201.36,295a3.08,3.08,0,1,1-3.08-3.08A3.08,3.08,0,0,1,201.36,295Z" style="fill:#263238"></path><path d="M230.78,296.58a3.08,3.08,0,1,1-3.08-3.08A3.08,3.08,0,0,1,230.78,296.58Z" style="fill:#263238"></path><circle cx="192.2" cy="318.9" r="3.08" style="fill:#263238"></circle><path d="M188.71,343.26a3.08,3.08,0,1,1-3.08-3.08A3.08,3.08,0,0,1,188.71,343.26Z" style="fill:#263238"></path><circle cx="178.87" cy="371.31" r="3.08" style="fill:#263238"></circle><circle cx="225.88" cy="320.53" r="3.08" style="fill:#263238"></circle><circle cx="215.91" cy="372.81" r="3.08" style="fill:#263238"></circle><circle cx="219.72" cy="346.34" r="3.08" style="fill:#263238"></circle><path d="M254.65,308.91a78.76,78.76,0,0,0-5.17-13.76c-.32-.72-.65-1.43-1-2.14a16.35,16.35,0,0,0-.49-3.62,21.81,21.81,0,0,0-1.28-3.83c0-.07-.15,0-.13,0,.37,1.26.71,2.54,1,3.83.17.83.29,1.65.42,2.48-.69-1.53-1.37-3.06-2.08-4.59-.62-1.32-1.23-2.63-1.84-3.95s-1.28-2.71-1.88-4.07c0-.06-.14,0-.11,0,1,2.34,1.86,4.72,2.78,7.08s1.82,4.65,2.76,7a133.85,133.85,0,0,1,5.17,13.55,28.53,28.53,0,0,1,.46,13.92,46,46,0,0,1-5.12,12.79c-1.31,2.32-2.83,4.51-4.3,6.75s-3.09,4.35-4.48,6.61a.09.09,0,0,0,.14.1c1.71-1.73,3.21-3.64,4.77-5.49a64.92,64.92,0,0,0,4.26-5.8,43.8,43.8,0,0,0,6-12.9A28.56,28.56,0,0,0,254.65,308.91Z" style="fill:#263238"></path><path d="M181.6,247C157.22,256,77.84,298.68,74.21,320.53c-2.7,16.24,12.53,26.71,29.32,25.38,14.61-1.16,67.72-58.36,82.42-74.5C200,256,205.55,238.23,181.6,247Z" style="fill:#c95f50"></path><path d="M181.6,247C157.22,256,77.84,298.68,74.21,320.53c-2.7,16.24,12.53,26.71,29.32,25.38,14.61-1.16,67.72-58.36,82.42-74.5C200,256,205.55,238.23,181.6,247Z" style="fill:#ebebeb"></path><path d="M182.48,276.16c.09-.12-.06-.28-.17-.16-3.75,4.06-7.54,8.09-11.4,12.05s-7.66,8-11.54,11.95q-11.58,11.82-23.84,22.93c-2.29,2.08-4.61,4.11-6.92,6.16s-4.75,4.06-7,6.19c-.07.06,0,.17.1.12,2.27-1.58,4.44-3.34,6.61-5.07s4.27-3.45,6.37-5.23c4.2-3.56,8.36-7.16,12.41-10.89s8.13-7.63,12.08-11.57c3.21-3.19,6.37-6.44,9.42-9.79.56-.41,1.12-.81,1.67-1.23,1.11-.86,2.21-1.74,3.32-2.62,2.16-1.71,4.19-3.58,6.31-5.34.13-.11-.06-.34-.19-.24-2.17,1.71-4.41,3.32-6.54,5.07l-2.66,2.22,0,0C174.64,286,178.63,281.1,182.48,276.16Z" style="fill:#263238"></path><path d="M228.79,252.45s-5.53,18.52-8.95,17.66c-10.53-2.65-16.92-20.69-16.76-23.12,0-.62,5.85-14.47,10.4-25.23,2.92-6.92,5.32-12.55,5.32-12.55l20.78,24.12-10.07,17.84Z" style="fill:#c95f50"></path><path d="M239.58,233.33l-10.07,17.84a41.08,41.08,0,0,1-16-29.41c2.92-6.92,5.32-12.55,5.32-12.55l2.67,2.9Z" style="fill:#263238"></path><path d="M275.62,218.4c-13.62,33.27-35.09,28.87-42.26,25.92-6.51-2.67-28.34-12.6-18.23-47.11s29.89-38.69,45.11-33.36S289.25,185.12,275.62,218.4Z" style="fill:#c95f50"></path><path d="M271.56,210.82a22.39,22.39,0,0,1-2-1.53,4.06,4.06,0,0,1-1.69-1.95,1.28,1.28,0,0,1,.7-1.4,3.18,3.18,0,0,1,3.13.72,4.68,4.68,0,0,1,1.89,2.77A1.36,1.36,0,0,1,271.56,210.82Z" style="fill:#263238"></path><path d="M248.75,203.21a21.7,21.7,0,0,0,2.07,1.36,4,4,0,0,0,2.39,1,1.27,1.27,0,0,0,1.1-1.1,3.18,3.18,0,0,0-1.67-2.75,4.69,4.69,0,0,0-3.23-.91A1.36,1.36,0,0,0,248.75,203.21Z" style="fill:#263238"></path><path d="M250.93,211.08c0-.09-.22,0-.26.12-1,2.25-2.44,4.67-4.79,4.47-.07,0-.12.11,0,.14C248.45,216.6,250.38,213.37,250.93,211.08Z" style="fill:#263238"></path><path d="M250,207.84c-3.44-1.93-7.05,5.1-3.86,6.89S252.92,209.46,250,207.84Z" style="fill:#263238"></path><path d="M248.46,207.51c-.82.08-1.78.47-2.56.17s-1.17-1.43-1.36-2.42c0-.11-.12-.08-.17,0-.71,1.33-.9,3,.44,3.92s2.78.16,3.82-1C248.82,208,248.79,207.47,248.46,207.51Z" style="fill:#263238"></path><path d="M263.34,216.76c.06-.07.11.19.07.28-1.21,2.13-2.23,4.78-.64,6.52.05.06,0,.16-.08.12C260.47,222.09,261.86,218.59,263.34,216.76Z" style="fill:#263238"></path><path d="M266.46,215.51c3.63,1.56.24,8.7-3.12,7.25S263.42,214.2,266.46,215.51Z" style="fill:#263238"></path><path d="M267.73,216.68c.38.65.61,1.6,1.27,2s1.7-.08,2.55-.58c.09-.06.11,0,.07.13-.61,1.38-1.73,2.59-3.17,2.23s-1.63-1.92-1.31-3.43C267.2,216.72,267.57,216.42,267.73,216.68Z" style="fill:#263238"></path><path d="M241.68,228c.22.79.34,1.76,1.07,2.27a6.7,6.7,0,0,0,2.59.77.08.08,0,0,1,0,.16,3.27,3.27,0,0,1-3.35-.39,2.59,2.59,0,0,1-.6-2.83C241.46,227.84,241.65,227.89,241.68,228Z" style="fill:#263238"></path><path d="M254.79,224.65s-1.18,3.5-1.95,5c-.07.14-.48,0-1-.21,0,0,0,0-.06,0a8.19,8.19,0,0,1-5.76-6.29.18.18,0,0,1,.34-.1,12.25,12.25,0,0,0,5.74,5.26c.32-.37,1.82-6.06,2.07-6a15,15,0,0,1,3.11,2.54c2.67-7.22,4.16-14.8,6.92-21.94a.24.24,0,0,1,.46.1c-1,8.06-3.89,16.43-6.45,23.95C257.87,228,255.27,225.22,254.79,224.65Z" style="fill:#263238"></path><path d="M251.4,228.39a9.16,9.16,0,0,1-4.46,1.25,4.12,4.12,0,0,1-2.37-.8c-1.5-1.12-.92-2.67-.08-3.86a10,10,0,0,1,1.57-1.71A11.83,11.83,0,0,0,251.4,228.39Z" style="fill:#263238"></path><path d="M246.94,229.64a4.12,4.12,0,0,1-2.37-.8c-1.5-1.12-.92-2.67-.08-3.86C246.21,225.89,247.49,227.83,246.94,229.64Z" style="fill:#ff9cbd"></path><path d="M270.2,176.45s-1.11,5.53-4.54,8.25c-7,5.58-14.88-.64-19.29.77-4.14,1.33-5.89,7.4-9.76,8.86-5.36,2-9.45-1.79-11.26.45s-7.41,9.43-11.12,8.87,7.66-61.06,48.79-38.85c0,0,6.91.47,13.64,9.33,7.43,9.79,3.78,28.1,3.78,28.1s-.1-.33-.92-2.29c-1.15-2.78-1.12-4.82-2-6.7-1.44-3-3.06-2.89-4.62-5.85C270.49,182.89,270.2,176.45,270.2,176.45Z" style="fill:#263238"></path><path d="M270.7,173.81a31.85,31.85,0,0,1-1.92,7,13.15,13.15,0,0,1-3.94,5.8,9.67,9.67,0,0,1-6.65,1.38c-2.36-.24-4.66-1.11-7.22-1.3a7.27,7.27,0,0,0-3.85.74,9.56,9.56,0,0,0-2.81,2.62c-1.5,1.93-3,3.83-5.17,4.66a8.06,8.06,0,0,1-6.78-.39c-2.12-1-4.16-2.77-6.68-2.85,2.5.29,4.29,2.1,6.42,3.35a8.76,8.76,0,0,0,7.35.72c2.52-.81,4.18-3,5.67-4.83a8.87,8.87,0,0,1,2.52-2.32,6.33,6.33,0,0,1,3.26-.55c2.32.13,4.67,1,7.18,1.2a12.39,12.39,0,0,0,3.79-.18,7.51,7.51,0,0,0,3.51-1.55,13.75,13.75,0,0,0,3.94-6.31A31.79,31.79,0,0,0,270.7,173.81Z" style="fill:#263238"></path><path d="M270.57,176.12a25.2,25.2,0,0,0-.8,6.77,12,12,0,0,0,1.94,6.69,18.11,18.11,0,0,0,2.35,2.54,5.59,5.59,0,0,1,1.53,2.63,16.65,16.65,0,0,0,.61,3.37,7.56,7.56,0,0,0,1.9,2.85,8.59,8.59,0,0,1-1.36-3,17.76,17.76,0,0,1-.27-3.33,5.89,5.89,0,0,0-1.62-3.24,18.79,18.79,0,0,1-2.19-2.46,12.68,12.68,0,0,1-2-6.09A50.1,50.1,0,0,1,270.57,176.12Z" style="fill:#263238"></path><path d="M219.37,201.93s-1.84-13.57-7.65-13.41-8,17.33-3.71,22a6.07,6.07,0,0,0,8.74.82Z" style="fill:#c95f50"></path><path d="M211.21,193.46c-.08-.05-.16.06-.1.13,2.95,3.42,3.14,7.89,2.67,12.18-.4-2-1.52-3.48-4.05-3.11-.13,0-.12.22,0,.25a3.74,3.74,0,0,1,3.06,3,17.86,17.86,0,0,1,.23,3.87c0,.42.7.55.77.1,0,0,0-.07,0-.1C216.34,205.11,216.07,196.56,211.21,193.46Z" style="fill:#263238"></path><path d="M211.74,210.69a1.26,1.26,0,1,1-.5-1.7A1.25,1.25,0,0,1,211.74,210.69Z" style="fill:#fff"></path><path d="M209.7,207.09a.8.8,0,0,1-1.08.31.79.79,0,1,1,1.08-.31Z" style="fill:#fff"></path><path d="M213.89,181.19c-.3-.41-9.56-17.89-10.95-19.56s-14.2-2-15.65-7.82-.31-16.88,7-20.71,14.85-4.55,15.44-5.21.52-17.26,11.06-21.16,22,11.9,22.74,12,6.07-8.46,13.31-7.85,12.39,12.82,14.23,13,8.2-2.4,14.75,4.3.61,21.18-1.7,22.72-3.41,20.59-3.41,20.59Z" style="fill:#ebebeb"></path><path d="M221.4,174.77a8.5,8.5,0,0,1-1.5-2.51c-.43-.91-.87-1.81-1.34-2.7a39,39,0,0,0-3.27-5.09c-.94-1.29-2.09-2.72-3.7-3.16a4.42,4.42,0,0,0-3.35.66,10.32,10.32,0,0,0-.74,1c-.08.09.09.22.15.11a2.1,2.1,0,0,1,1.12-1,5.09,5.09,0,0,1,1.22-.25,3.59,3.59,0,0,1,2.43.82,14.87,14.87,0,0,1,3.1,4q1.41,2.19,2.84,4.38c.85,1.33,1.54,3.06,2.87,4C221.34,175,221.5,174.88,221.4,174.77Z" style="fill:#c7c7c7"></path><path d="M225.41,175c-1.84-3.7-3.69-7.41-5.56-11.1a55.17,55.17,0,0,1-4.79-11.61c0-.12-.21-.09-.18,0a55.66,55.66,0,0,0,3.82,12,79.57,79.57,0,0,0,6.52,10.85A.11.11,0,0,0,225.41,175Z" style="fill:#c7c7c7"></path><path d="M236.08,170c-1.06-3.38-2.47-6.67-3.84-9.94a35.5,35.5,0,0,0-4.67-8.07c-.07-.09-.21,0-.14.12,1.77,2.64,2.68,5.73,3.87,8.66,1.29,3.2,2.58,6.44,4.17,9.51A.34.34,0,0,0,236.08,170Z" style="fill:#c7c7c7"></path><path d="M255.1,142.27a3.63,3.63,0,0,0-5.55.69c-1.48,2.25-1.47,5.42-1.47,8a34.19,34.19,0,0,0,1,8.36,36.13,36.13,0,0,0,3.55,8.83.1.1,0,0,0,.18-.08,41.72,41.72,0,0,1-3.16-14.53,39.27,39.27,0,0,1,.33-7.35c.28-2,1.85-5.21,4.42-3.87,2.41,1.25,2.62,4.63,4,6.71,0,0,.11,0,.07-.06C257.14,146.81,257.08,144.08,255.1,142.27Z" style="fill:#c7c7c7"></path><path d="M279.3,144.44a18.63,18.63,0,0,0-5.83,10.64,33.76,33.76,0,0,0-.6,6.87,36,36,0,0,0,.43,7.12.1.1,0,0,0,.19,0c.27-2.22,0-4.5.27-6.72a44,44,0,0,1,1.09-6.66,40.12,40.12,0,0,1,1.91-5.63,28.8,28.8,0,0,1,2.91-5.27C279.83,144.56,279.53,144.24,279.3,144.44Z" style="fill:#c7c7c7"></path><path d="M267.27,158a76,76,0,0,0-1.34-10.64.27.27,0,0,0-.54.09c.36,3.52.51,7.07.65,10.6s.06,7,.43,10.51a.1.1,0,0,0,.19,0A40.63,40.63,0,0,0,267.27,158Z" style="fill:#c7c7c7"></path><path d="M215.66,189.78c.74-2.35,26.83-21.46,64.41-8.38,1.12.39,3.44-15.31,1.62-16.92s-52.41-13-71.77,12.33C208.61,178.53,215.66,189.78,215.66,189.78Z" style="fill:#B71E3A"></path><path d="M206.3,238.88c0-2.38-12,6.63-12.16,8.23s5.86,27.12,26.26,30.37c2.68.42,10.07-14.75,10.4-17.44s-2-7.59-2-7.59-6.39,13-8.41,13.12S206,253.46,206.3,238.88Z" style="fill:#B71E3A"></path><path d="M78.7,335.63c-12.12-15.2,6.29-29.11,19.86-28.54,31.84,1.35,86.74,12.66,111.53,27.36,8,4.73,6.1,56.95-3.76,55.95C188.82,388.63,103.29,366.48,78.7,335.63Z" style="fill:#c95f50"></path><path d="M189.23,333.85c4-1.06,27.66-12.63,35.43-13.48s34.81,6.16,40.72,9.36,22,22,23.33,27.86c1,4.7-8.32,8.2-19-.16-10-7.81-12-10.17-15.41-11.68s-17.29-.11-19.41,4.9c-1.25,3,2,11.53,7.28,13.81s11.27-.52,19,.6,13.77,6.86,12.77,9.62c-1.66,4.57-5.09,2.85-16,5.42-7,1.66-16.07,6.1-29,9.81-13.72,3.95-34.2-1.87-34.2-1.87Z" style="fill:#c95f50"></path><path d="M278.5,375.25s-.16-6.15-3.32-8.87a14.05,14.05,0,0,0-9.8-3.72c-3.83-.09-9.49.64-10.35-.39a17,17,0,0,1,2.4,4,32.19,32.19,0,0,0,2.8,5.52c3.86,5.16,9,6.09,11.37,5.73S277.73,375.12,278.5,375.25Z" style="fill:#455a64"></path><path d="M267.19,376.41a1.78,1.78,0,0,0,.33.09,2.06,2.06,0,0,0,.69.1,1,1,0,0,0,.51,0,2.63,2.63,0,0,0,.39-.06,9.59,9.59,0,0,0,1.3-.15c.51-.09,1-.2,1.54-.32a11.66,11.66,0,0,0,1.29-.34c.81-.29,1.58-.67,2.39-.94a4.5,4.5,0,0,1,1.33-.28l-1-.6c-.46-.27-.93-.54-1.4-.79a5.84,5.84,0,0,0-.74.15c-.84.17-1.66.42-2.47.67-.57.18-1.13.39-1.71.53a16,16,0,0,1-1.84.28,11.21,11.21,0,0,1-2.09.07,4.51,4.51,0,0,1-2.29-.69s0-.05,0,0a5.37,5.37,0,0,0,2,.61,11,11,0,0,0,2.22-.11,15.77,15.77,0,0,0,2.55-.51c.76-.24,1.52-.49,2.29-.7a9.93,9.93,0,0,1,1.78-.39,17.4,17.4,0,0,0-2.78-1.17l-.51-.17a1.64,1.64,0,0,0-.44,0,5.53,5.53,0,0,0-1.19.39c-.74.29-1.45.69-2.21.91a6.26,6.26,0,0,1-3,0,8.62,8.62,0,0,1-1.59-.49l-.18-.08c-.15-.09-.3-.18-.44-.28s-.4-.3-.61-.43l-.11-.09a0,0,0,0,1,.06,0,11.72,11.72,0,0,0,1.48.8,7.27,7.27,0,0,0,1.72.45,5.82,5.82,0,0,0,2.87-.22c.79-.3,1.54-.69,2.34-1a5.18,5.18,0,0,1,.85-.23,18.88,18.88,0,0,1-2.61-1.34,7.55,7.55,0,0,1-1.76.25c-.75.05-1.5,0-2.25,0a6.46,6.46,0,0,1-2.52-.63,9.42,9.42,0,0,1-1.16-.64,5.76,5.76,0,0,1-1-.8s0-.06,0,0c.35.21.66.47,1,.69a7.77,7.77,0,0,0,1.21.64,6.77,6.77,0,0,0,2.58.57c.7,0,1.4,0,2.1,0,.54,0,1.06-.09,1.58-.17l-.29-.18c-.79-.5-1.57-1-2.34-1.56a9.92,9.92,0,0,0-1.38-.8c-1.13-.31-2.33-.17-3.45-.54a8.71,8.71,0,0,1-2.75-1.87s0-.08,0-.05a9.39,9.39,0,0,0,2.85,1.81,8,8,0,0,0,1.84.28,5.2,5.2,0,0,1,1,.14c-.26-.13-.51-.26-.76-.41a9.69,9.69,0,0,1-1.11-.79,4.83,4.83,0,0,0-1.27-.84c-.46-.19-.95-.28-1.4-.49l0,0-.23-.17c-.11-.1-.22-.2-.32-.31s-.21-.23-.32-.35l-.07-.09h0q.4.38.84.72a3.71,3.71,0,0,0,1.19.45,5.59,5.59,0,0,1,1.86,1.14,11.08,11.08,0,0,0,2.07,1.23l.69.37a4.1,4.1,0,0,1-.36-.56,5.88,5.88,0,0,0-.78-1.2,13.36,13.36,0,0,0-2.87-1.87s0-.07,0-.06c.51.24,1,.5,1.49.76a6.36,6.36,0,0,1,1.4.94,4.73,4.73,0,0,1,.77,1.1c.21.39.45.74.69,1.11q.44.27.87.57c.77.52,1.55,1,2.35,1.48h0l.13.09h0l.05,0,0,0h0l.21.12a3.73,3.73,0,0,1-.55-1.43,5.47,5.47,0,0,0-1.36-2.35,10.88,10.88,0,0,0-2.31-1.91c-.93-.56-1.94-.89-2.9-1.37,0,0,0-.06,0,0a13.17,13.17,0,0,1,2.81,1.21,10,10,0,0,1,2.39,1.81,5.94,5.94,0,0,1,1.42,2.14c.14.39.2.8.32,1.2a2.44,2.44,0,0,0,.63,1l.75.38a17.63,17.63,0,0,0,2.12.84l.09,0a3.08,3.08,0,0,1-1-1.46,19.45,19.45,0,0,1-.75-2.5,5.37,5.37,0,0,0-1.67-2.63,7.94,7.94,0,0,0-.89-.63.83.83,0,0,0-.15-.11,2.73,2.73,0,0,0-.48-.25c-.26-.13-.52-.28-.79-.4a3.49,3.49,0,0,0-.48-.23h0a6.44,6.44,0,0,1,1.41.58,7.43,7.43,0,0,1,1.29.79,5.59,5.59,0,0,1,1.79,2.37c.32.78.44,1.64.71,2.44a4.48,4.48,0,0,0,1,1.87h0a1.47,1.47,0,0,0,.71.44c.48.19.95.41,1.41.64l.66.34.15,0a5.18,5.18,0,0,1-.88-1.36c-.41-.85-.66-1.77-1-2.65a16.12,16.12,0,0,0-1.36-2.88,7.43,7.43,0,0,0-1-1.2,3.09,3.09,0,0,0-.39-.33.23.23,0,0,0-.07-.07h0a2.11,2.11,0,0,0-.23-.19l-.11-.09a2.47,2.47,0,0,0-.42-.3,4.78,4.78,0,0,1,2.16,1.82,12.94,12.94,0,0,1,1.44,2.76c.35.88.62,1.78,1,2.65a7.37,7.37,0,0,0,.69,1.3,2.79,2.79,0,0,0,.35.42,5.23,5.23,0,0,0,.45.49.7.7,0,0,0,.16.14h0l-.06,0c.31.18.62.36.92.55l1.25.75h0a16.91,16.91,0,0,1-.64-1.76c-.28-.83-.54-1.67-.84-2.5a15,15,0,0,0-1.06-2.39,8.86,8.86,0,0,0-1.78-2.17,0,0,0,1,1,0,0,10,10,0,0,1,2.93,4.32c.34.83.59,1.7.87,2.56s.52,1.44.77,2.17a4,4,0,0,1,.65.59,7,7,0,0,1,1.4,1.94,8.36,8.36,0,0,0,.39.86,1.78,1.78,0,0,0,.83.7c.08,0,0,.33-.14.31-.53-.08-.77-.52-1-1a12.16,12.16,0,0,0-.81-1.56,11.15,11.15,0,0,0-1.19-1.46h0a.75.75,0,0,0-.16-.15h0l-.08-.06a5.82,5.82,0,0,0-.72-.45,4.35,4.35,0,0,0-1.88.4c-.78.3-1.54.67-2.33.93-.44.14-.89.22-1.33.32s-1,.22-1.54.3a6.31,6.31,0,0,1-3-.18A0,0,0,0,1,267.19,376.41Z" style="fill:#37474f"></path><path d="M227,318.94c9.53-.6,29,1.45,40.7,9,7.91,5.11,13.82,38.24,8.63,40.94s-8.25-1.47-12-8.19c-1.38-2.45-5.79-17.49-9.77-17.69-5.72-.3-20.7,4.94-20.7,4.94Z" style="fill:#c95f50"></path><path d="M277.66,367c2.8-6.67.63-15.25-2.07-23.39,0-.13-.24-.08-.2.05.68,2.08,3.58,16.45,2.14,23.33C277.51,367,277.64,367,277.66,367Z" style="fill:#263238"></path><path d="M227,318.94c9.53-.6,29,1.45,40.7,9,7.91,5.11,6.77,35.57,1.58,38.26s-9.94-3-12.47-11.35c-.82-2.69-1-13.56-5-13.77-5.72-.3-19.83-.92-19.83-.92Z" style="fill:#c95f50"></path><path d="M259.55,361.36c-1.67-2.77-2.2-6.74-2.55-9.91-.3-2.77-.35-5.91-1.82-8.37a5.83,5.83,0,0,0-2.71-2.51,11.47,11.47,0,0,0-3.91-.51c-1.51-.05-3,0-4.53,0s-2,.09-3.56.17c-.63,0-.54.46.15.44a40,40,0,0,1,7.5.53A13.25,13.25,0,0,1,252,342a5,5,0,0,1,2.49,3c.93,2.64.89,5.57,1.58,8.28s1.52,6.07,3.33,8.22C259.46,361.61,259.62,361.47,259.55,361.36Z" style="fill:#263238"></path><path d="M273.26,361.64c1.21-3.16,1.34-6.86,1.31-10.21a68.29,68.29,0,0,0-1-10.58q-.45-2.7-1.05-5.37a15.08,15.08,0,0,0-1.58-5c-2.63-4-8.3-5.49-10.3-6.3-.12,0-.22.13-.1.18,1.63.69,7,2.85,8.68,5.26a12.9,12.9,0,0,1,1.86,5.07c.31,1.55.62,3.1.9,4.65,1.11,6.33,1.83,13.16.6,19.52-.68,3.53-2.43,7-6.19,7.87-.13,0-.09.22,0,.22C269.56,367.09,272.21,364.39,273.26,361.64Z" style="fill:#263238"></path><path d="M216.91,322.31c4.1-1.2,17.89-9.54,23.52-10.56s27.4-2.09,31.26,3.2c4.85,6.64-11.76,10.31-19.12,11.26s-14.48,8.44-14.48,8.44Z" style="fill:#c95f50"></path><path d="M264,323.81a72.62,72.62,0,0,0-7.33,1,46.16,46.16,0,0,0-6.91,1.37c-2.21.73-7.86,4.74-8.65,5.57-3.64,3.82-10.75,12.42-18.64,19.72a50.62,50.62,0,0,1-9.93,7c-.9.48-1.37,1.12,0,.54,13.19-5.5,26.95-23.69,29.64-26.25a31.44,31.44,0,0,1,8.27-5.28c4.44-1.48,9.14-2,13.6-3.45C264.27,324.06,264.18,323.79,264,323.81Z" style="fill:#263238"></path><path d="M185.59,319.49l-12.1,33.45-3.82,32.17s-99.62-32.93-95-60.86c1.55-9.42,11.53-21.39,32.76-20.55S185.59,319.49,185.59,319.49Z" style="fill:#ebebeb"></path><path d="M185.81,320.32c-2.15-.78-4.25-1.65-6.42-2.38s-4.24-1.41-6.38-2.07c-4.29-1.32-8.67-2.47-13-3.54a264.53,264.53,0,0,0-26.19-5c-3.17-1.28-6.47-2.26-9.69-3.39-.1,0-.13.11,0,.15,2.63,1,5.24,2.06,7.89,3-2-.27-4.08-.54-6.13-.77-2.48-.28-5-.37-7.45-.6-.09,0-.11.15,0,.16,2.2.28,4.39.71,6.58,1.08s4.48.7,6.71,1.08c4.44.76,8.86,1.58,13.27,2.49,8.77,1.82,17.53,3.82,26.17,6.23,2.41.67,4.84,1.29,7.26,2s4.93,1.28,7.37,2C186,320.84,186.07,320.42,185.81,320.32Z" style="fill:#263238"></path><path d="M167.18,384.07c-4.14-1.55-8.23-3.26-12.35-4.85s-8.31-3.26-12.41-5c-8.24-3.51-16.34-7.33-24.46-11.09-4.71-2.18-9.51-4.17-14.21-6.35-.12,0-.23.13-.1.19,2.06,1,4.1,2.15,6.14,3.24s4.06,2.06,6.07,3.12c4,2.12,8.15,4.11,12.25,6.11A261.76,261.76,0,0,0,152.8,380c4.7,1.72,9.48,3.11,14.3,4.44C167.31,384.45,167.37,384.14,167.18,384.07Z" style="fill:#263238"></path><path d="M187.86,319.47c-.12-.36-18-5.15-18-5.15s-18.32,29.74-18.54,33.46-2.49,32-2.24,32.31,21.53,8.2,22,7.59,4-30.95,4.2-33.28S187.86,319.47,187.86,319.47Z" style="fill:#B71E3A"></path></g><g id="freepik--Food--inject-100"><path d="M324.18,424.09c-.37.25-7.07,4.56-10.95,6-5.65,2.09-29.91,3.36-36.93,3.36s-31.29-1.27-36.94-3.36c-3.88-1.45-10.58-5.76-11-6,.54.11,18,3.7,47.89,3.7S323.64,424.2,324.18,424.09Z" style="fill:#c7c7c7"></path><ellipse cx="276.3" cy="413.09" rx="77.71" ry="16.85" style="fill:#dbdbdb"></ellipse><ellipse cx="276.3" cy="411.32" rx="51.39" ry="9.37" style="fill:#c7c7c7"></ellipse><ellipse cx="276.3" cy="411.97" rx="38.71" ry="6.66" style="fill:#B71E3A"></ellipse><ellipse cx="276.3" cy="411.97" rx="38.71" ry="6.66" style="opacity:0.1"></ellipse><path d="M303.06,410.36c-10,3.31-21.77,3.8-26.76,3.8s-16.8-.49-26.77-3.8l1.67-16.76h50.19Z" style="fill:#B71E3A"></path><ellipse cx="276.3" cy="393.6" rx="25.1" ry="3.85" style="fill:#B71E3A"></ellipse><path d="M301.33,393.86h.07s-1.12,3-2.62,3.1c-.92.09-1.9-.64-2.55.64s1.81,6.28-.54,6.28-.87-4.19-1.23-5.08a2,2,0,0,0-2.27-1.34c-.95.25-2.27,2.56-3.74,1.83s-2.8-.49-3.25.37,1,3.22-.88,3.27.74-4-1.73-4.59c-1.62-.38-2.44,1-4.17,1.07s-2.39-1-4-.89-1.9,2.33-3.73,2.33c-1.42,0-2-2.33-2.89-2.26s-1.53,1-3.14.79-1.72-1.55-3.18-1.92c-1.08-.28-2.38-.09-2.73.66-.74,1.62.78,5.76-1.12,5.76s-1.17-3-1.12-4.56-.51-3.32-2-3.81l-.28-.08c-.69-.13-1.19,1.39-2.32.82-.51-.26-.7-2.39-.7-2.39h.06a.65.65,0,0,1-.06-.26c0-2.13,11.23-3.85,25.1-3.85s25.1,1.72,25.1,3.85A.68.68,0,0,1,301.33,393.86Z" style="opacity:0.1"></path><path d="M252.07,393.4a114.92,114.92,0,0,0,12.07,1.71l3,.25,3,.2c2,.07,4.06.15,6.09.12s4.05-.05,6.08-.1,4.05-.24,6.07-.45c1-.11,2-.17,3-.31l3-.42c2-.23,4-.7,6-1-1,.27-2,.53-3,.78s-2,.52-3,.7l-3,.57c-1,.18-2,.29-3,.44a92.57,92.57,0,0,1-12.23.79,100,100,0,0,1-12.24-.8c-2-.28-4.05-.6-6.05-1S254,394,252.07,393.4Z" style="fill:#B71E3A"></path><path d="M284.44,378.73s-2.29,1.71-2.44,2.9c-.13,1-1.58.13-1.55-1.11a1.76,1.76,0,0,1,.27-.86,5.26,5.26,0,0,0,2.88-1.47.79.79,0,0,1,.24.05A.93.93,0,0,1,284.44,378.73Z" style="fill:#455a64"></path><path d="M284.44,378.73s-2.29,1.71-2.44,2.9c-.13,1-1.58.13-1.55-1.11a1.68,1.68,0,0,0,1.38-.48c.63-.48,2-.88,2-1.8A.93.93,0,0,1,284.44,378.73Z" style="fill:#37474f"></path><path d="M280.27,381.08a3.81,3.81,0,0,1-.71-1.09h0l-.05-.1a4.26,4.26,0,0,1-.46-2.38c.24-.68,2-1.4,2.39-1.39s-.18.94-.5,2-.47,1.86,0,2.39c.93,1.16,3.35.64,4,.83a3.68,3.68,0,0,1,1.48.76.34.34,0,0,1,.05.11C286.48,382.42,283.83,384.55,280.27,381.08Z" style="fill:#455a64"></path><path d="M280.27,381.08a3.81,3.81,0,0,1-.71-1.09,6.61,6.61,0,0,0,1.77,1.26,5.75,5.75,0,0,0,3.31.65,3.17,3.17,0,0,1,1.76.17.34.34,0,0,1,.05.11C286.48,382.42,283.83,384.55,280.27,381.08Z" style="fill:#37474f"></path><path d="M286.65,384.46a2.72,2.72,0,0,1-2.16.5,5.26,5.26,0,0,1-3.43-2.59c-.4-.73-2.62-2.26-3.57-3.43h0l-.05-.06a1.59,1.59,0,0,1-.38-.76c-.1-1.13,1.08-2.68,1.46-2.52.19.09.18.52.16,1.06a4.84,4.84,0,0,0,.15,1.6,9.25,9.25,0,0,0,2.8,3.45c2.06,1.75,5,2.44,5.07,2.63C286.71,384.37,286.7,384.41,286.65,384.46Z" style="fill:#455a64"></path><path d="M286.65,384.46a2.72,2.72,0,0,1-2.16.5,5.26,5.26,0,0,1-3.43-2.59c-.4-.73-2.62-2.26-3.57-3.43,1.42,1.29,3.14,2.2,4.57,3.48a7.62,7.62,0,0,0,2.3,1.72A4.75,4.75,0,0,0,286.65,384.46Z" style="fill:#37474f"></path><path d="M278.15,392.74a22.5,22.5,0,0,1-7.28.15,8.24,8.24,0,0,1-1.49-.35,1.61,1.61,0,0,1-.55-.29c-.69-.64-1.13-2.23-.7-5.79s3.14-7.33,6.18-7.73a6.08,6.08,0,0,1,5.12,2l.26.29a2.52,2.52,0,0,0,.48.27c1.23.59,4.33,2,4.44,5C284.75,389.92,282,392,278.15,392.74Z" style="fill:#c95f50"></path><path d="M277.35,381.17c-.07-.1-.26-.05-.35,0s-.27.14-.27.28a.19.19,0,0,0,.1.18.2.2,0,0,0,.22,0,.86.86,0,0,0,.29-.28.36.36,0,0,0,0-.14Z" style="fill:#B71E3A"></path><path d="M275.3,379.53s0,0,0,0a.35.35,0,0,0-.3-.13c-.12,0-.25.09-.25.23a.22.22,0,0,0,.26.18.43.43,0,0,0,.32-.16A.07.07,0,0,0,275.3,379.53Z" style="fill:#B71E3A"></path><path d="M274.74,381.26a.1.1,0,0,0,0-.05.47.47,0,0,0-.33,0c-.09.05-.19.14-.17.25a.19.19,0,0,0,.26.15.65.65,0,0,0,.3-.21A.13.13,0,0,0,274.74,381.26Z" style="fill:#B71E3A"></path><path d="M274.74,383.92s0-.06,0-.08-.26,0-.35,0-.27.23-.23.37.24.16.36.08a.57.57,0,0,0,.25-.34A.14.14,0,0,0,274.74,383.92Z" style="fill:#B71E3A"></path><path d="M271.87,381.66a.05.05,0,0,0,0,0,.1.1,0,0,0-.07,0,.47.47,0,0,0-.36.18c-.08.1-.15.26,0,.37s.22,0,.29-.06A.83.83,0,0,0,271.87,381.66Z" style="fill:#B71E3A"></path><path d="M272.14,384.37a.08.08,0,0,0-.09,0h0a.37.37,0,0,0-.28.09.34.34,0,0,0-.14.28.16.16,0,0,0,.22.14.59.59,0,0,0,.24-.2C272.12,384.58,272.22,384.44,272.14,384.37Z" style="fill:#B71E3A"></path><path d="M272.94,387.27a.08.08,0,0,0-.08-.07.08.08,0,0,0-.05-.05c-.24,0-.52.37-.38.58s.26,0,.35,0A.61.61,0,0,0,272.94,387.27Z" style="fill:#B71E3A"></path><path d="M275.69,386.8h0a.09.09,0,0,0,0-.06c-.12-.11-.27,0-.37.07s-.23.24-.15.38a.27.27,0,0,0,.37,0A.43.43,0,0,0,275.69,386.8Z" style="fill:#B71E3A"></path><path d="M269.49,384.89c0-.05,0-.11-.06-.12a.31.31,0,0,0-.35.22c-.05.13-.16.33,0,.44s.27,0,.34-.14A.58.58,0,0,0,269.49,384.89Z" style="fill:#B71E3A"></path><path d="M270.34,388.12a.14.14,0,0,0,0-.07.06.06,0,0,0,0,0c-.07-.12-.23-.08-.31,0a.55.55,0,0,0-.14.42.17.17,0,0,0,.29.08A.61.61,0,0,0,270.34,388.12Z" style="fill:#B71E3A"></path><path d="M277.35,383.71c-.21,0-.53.22-.4.43a.23.23,0,0,0,.31.05.53.53,0,0,0,.12-.14,1.88,1.88,0,0,0,.12-.18A.12.12,0,0,0,277.35,383.71Z" style="fill:#B71E3A"></path><path d="M279.8,382.78c0-.07-.13-.1-.17,0l0,0a.52.52,0,0,0-.2.19c-.05.09-.08.23,0,.3S279.86,382.94,279.8,382.78Z" style="fill:#B71E3A"></path><path d="M282.68,384.22a.55.55,0,0,0-.14-.39c0-.05-.12,0-.16,0a.08.08,0,0,0-.07,0,.37.37,0,0,0-.05.34c0,.11.11.24.23.25S282.68,384.34,282.68,384.22Z" style="fill:#B71E3A"></path><path d="M284.11,386.94c0-.13-.06-.32-.22-.32a.08.08,0,0,0-.07.05h0a.56.56,0,0,0-.14.48c0,.13.16.26.3.16A.53.53,0,0,0,284.11,386.94Z" style="fill:#B71E3A"></path><path d="M281,385.72a.09.09,0,0,0-.15,0v0a.73.73,0,0,0-.26.34.24.24,0,0,0,.1.34C281,386.53,281.09,385.9,281,385.72Z" style="fill:#B71E3A"></path><path d="M278.31,386.05a.7.7,0,0,0-.32.24.43.43,0,0,0-.09.39c.07.16.26.12.36,0a1.06,1.06,0,0,0,.16-.45s0,0,0,0A.1.1,0,0,0,278.31,386.05Z" style="fill:#B71E3A"></path><path d="M282,387.88a.11.11,0,0,0-.19-.06.62.62,0,0,0-.29.24.25.25,0,0,0,0,.34C281.83,388.62,282,388.06,282,387.88Z" style="fill:#B71E3A"></path><path d="M282.06,390.38a.27.27,0,0,0-.3,0,.37.37,0,0,0-.17.31c0,.16.19.2.32.14a.67.67,0,0,0,.28-.32A.12.12,0,0,0,282.06,390.38Z" style="fill:#B71E3A"></path><path d="M279.29,391.38c0-.1-.18-.1-.27-.08s-.25.11-.27.24.16.21.29.2a.44.44,0,0,0,.34-.22A.1.1,0,0,0,279.29,391.38Z" style="fill:#B71E3A"></path><path d="M279.59,389a.08.08,0,0,0,0-.05s0-.1-.06-.09a.59.59,0,0,0-.35.14c-.08.07-.18.19-.14.31S279.62,389.24,279.59,389Z" style="fill:#B71E3A"></path><path d="M276.72,389.42h0a.53.53,0,0,0-.38.14c-.09.08-.21.23-.09.34s.63-.15.66-.37S276.79,389.36,276.72,389.42Z" style="fill:#B71E3A"></path><path d="M276.53,391.78s0-.06,0-.06v0a.44.44,0,0,0-.35-.07c-.12,0-.25.14-.24.27s.2.16.32.13S276.53,391.92,276.53,391.78Z" style="fill:#B71E3A"></path><path d="M274,389.65a.08.08,0,0,0-.09,0l0,0a.05.05,0,0,0-.05,0,.47.47,0,0,0-.33.17.26.26,0,0,0,0,.35C273.71,390.32,274.07,389.87,274,389.65Z" style="fill:#B71E3A"></path><path d="M273.53,392s0-.06,0-.07h0c0-.12-.18-.13-.27-.11s-.26.13-.25.26.16.19.28.17S273.54,392.13,273.53,392Z" style="fill:#B71E3A"></path><path d="M271.21,392.05s0,0,0,0-.22,0-.31,0-.23.1-.16.22.18.09.27.07.23-.05.26-.16A.08.08,0,0,0,271.21,392.05Z" style="fill:#B71E3A"></path><path d="M271.37,390.21l0,0s0,0,0,0a.52.52,0,0,0-.3.16.2.2,0,0,0,0,.29c.1.09.21,0,.28-.06S271.44,390.33,271.37,390.21Z" style="fill:#B71E3A"></path><path d="M268.84,390a.1.1,0,0,0-.15,0s-.08,0-.09,0a.93.93,0,0,0-.1.35c0,.1.08.21.19.19S269,390.17,268.84,390Z" style="fill:#B71E3A"></path><g style="opacity:0.2"><path d="M275.85,387.23c-.15.1-.27.23-.42.31a.92.92,0,0,1-.27.08c-.08,0-.14,0-.21,0a0,0,0,0,0,0,.05c.05.19.37.13.51.08a1,1,0,0,0,.52-.43C276,387.26,275.9,387.19,275.85,387.23Z" style="fill:#fff"></path><path d="M278.65,386.66a.05.05,0,0,0-.09,0c-.12.1-.15.27-.25.39a.54.54,0,0,1-.47.2.07.07,0,0,0,0,.13.55.55,0,0,0,.61-.09C278.55,387.14,278.73,386.86,278.65,386.66Z" style="fill:#fff"></path><path d="M278.79,386.29a0,0,0,0,0-.08,0s0,0,0,0,0,.15.07.11A.1.1,0,0,0,278.79,386.29Z" style="fill:#fff"></path><path d="M274.19,390.08c-.12.07-.22.17-.35.23a2,2,0,0,1-.42.07.08.08,0,0,0,0,.16.82.82,0,0,0,1-.33C274.39,390.11,274.28,390,274.19,390.08Z" style="fill:#fff"></path><path d="M272.39,384.84a.08.08,0,0,0-.11-.07c-.1.06-.16.17-.25.24a.4.4,0,0,1-.38.12.07.07,0,0,0-.09.11C271.75,385.57,272.43,385.15,272.39,384.84Z" style="fill:#fff"></path><path d="M270.5,388.54c-.19.12-.37.37-.63.24-.07,0-.14.07-.07.12a.62.62,0,0,0,.83-.22A.1.1,0,0,0,270.5,388.54Z" style="fill:#fff"></path><path d="M272.76,388.07a.25.25,0,0,0-.12,0s-.08,0-.12,0a.05.05,0,0,0,0,.09.19.19,0,0,0,.18.06.14.14,0,0,0,.15-.1A.06.06,0,0,0,272.76,388.07Z" style="fill:#fff"></path><path d="M273.2,387.86a.08.08,0,0,0-.05-.08h0c-.07,0-.12.07-.08.13s.14,0,.14,0Z" style="fill:#fff"></path><path d="M275.06,384.16c-.12.08-.17.23-.25.34a.48.48,0,0,1-.51.18c-.05,0-.09.05,0,.08a.57.57,0,0,0,.52-.05.89.89,0,0,0,.41-.47C275.2,384.17,275.11,384.11,275.06,384.16Z" style="fill:#fff"></path><path d="M277.58,384.2c-.1.07-.16.19-.26.26a.35.35,0,0,1-.41,0c-.05,0-.1.05-.06.09a.39.39,0,0,0,.44,0,.7.7,0,0,0,.35-.37S277.61,384.17,277.58,384.2Z" style="fill:#fff"></path><path d="M279.9,383.37a0,0,0,0,0-.08,0c-.08.05-.13.12-.22.15a.49.49,0,0,1-.27,0s-.07.05,0,.07a.38.38,0,0,0,.37.06C279.77,383.6,279.91,383.5,279.9,383.37Z" style="fill:#fff"></path><path d="M280,383h0c-.06,0-.08.08,0,.09h0C280.07,383.1,280.08,383,280,383Z" style="fill:#fff"></path><path d="M277.29,381.74a.57.57,0,0,1-.41.06.06.06,0,0,0,0,.1.43.43,0,0,0,.55-.06C277.45,381.78,277.36,381.7,277.29,381.74Z" style="fill:#fff"></path><path d="M277.7,381.67a.08.08,0,0,0-.05-.07h0c-.06,0-.11.07-.07.12a.08.08,0,0,0,.14,0Z" style="fill:#fff"></path><path d="M281.08,386.43a.63.63,0,0,1-.51.29.06.06,0,0,0,0,.11.45.45,0,0,0,.58-.38S281.1,386.4,281.08,386.43Z" style="fill:#fff"></path><path d="M281.24,386.07a.05.05,0,0,0,0,.1C281.28,386.18,281.3,386.08,281.24,386.07Z" style="fill:#fff"></path><path d="M279.61,389.4a.7.7,0,0,1-.71.2c-.06,0-.11.07,0,.1a.66.66,0,0,0,.86-.23C279.76,389.4,279.66,389.35,279.61,389.4Z" style="fill:#fff"></path><path d="M281.81,388.5c-.1.07-.21.19-.34.14s-.1.05,0,.08a.4.4,0,0,0,.47-.13C282,388.54,281.87,388.47,281.81,388.5Z" style="fill:#fff"></path><path d="M276.7,390a1.57,1.57,0,0,1-.28.1.51.51,0,0,1-.32-.05c-.05,0-.09.05-.05.09s.6.21.73-.05A.07.07,0,0,0,276.7,390Z" style="fill:#fff"></path><path d="M271.33,390.8a.39.39,0,0,1-.23.09.53.53,0,0,1-.24-.08s-.07,0-.05.06a.4.4,0,0,0,.6,0C271.45,390.84,271.39,390.76,271.33,390.8Z" style="fill:#fff"></path><path d="M271.17,392.43l-.23.11a1.07,1.07,0,0,1-.25,0s-.06.06,0,.08a.52.52,0,0,0,.54-.16S271.21,392.41,271.17,392.43Z" style="fill:#fff"></path><path d="M282.48,384.76c-.06,0-.1,0-.16,0s-.06,0,0,.06a.21.21,0,0,0,.18.07S282.53,384.77,282.48,384.76Z" style="fill:#fff"></path></g></g><g id="freepik--cooking-tools--inject-100"><path d="M445.81,379.43v42.72c0,3.06-1.14,5.55-2.53,5.55l-16.44,0H410.38c-1.39,0-2.52-2.46-2.52-5.52V379.43c0-3.06,1.13-5.52,2.52-5.52h1.52v-4h14.94v0l14.92,0v4h1.52C444.67,373.91,445.81,376.37,445.81,379.43Z" style="fill:#B71E3A"></path><rect x="410.83" y="363.33" width="31.97" height="7.19" style="fill:#37474f"></rect><rect x="407.86" y="388.49" width="37.94" height="26.99" style="fill:#ebebeb"></rect><path d="M403.65,420.17c0,5.6-2.1,7.53-3.17,7.54H382.24c-1.07,0-3.18-1.92-3.19-7.52,0-6.64,4.75-10.63,4.74-14.26,0-2.37-2.28-9.71-1.3-9.71l17.65,0c1,0-1.28,7.35-1.28,9.72C398.87,409.56,403.64,413.53,403.65,420.17Z" style="fill:#c7c7c7"></path><path d="M383.86,391.28h14.89a2.15,2.15,0,0,1,2.15,2.15v4.37a.15.15,0,0,1-.15.15H381.87a.15.15,0,0,1-.15-.15v-4.37A2.15,2.15,0,0,1,383.86,391.28Z" transform="translate(-0.58 0.57) rotate(-0.08)" style="fill:#37474f"></path><path d="M176.71,423.41a11.19,11.19,0,0,1-4.6,7.72c-5.38,4.26-14.36,6.07-23.43,4.73-6.14-.9-13.85-4.35-21.31-7.69s-14.7-6.59-19.77-7L47.6,416l.32-3.68,1.4.12-.2,2.27,58.6,5.05c5.31.46,12.56,3.71,20.23,7.14,7.37,3.3,15,6.71,20.93,7.59,8.7,1.28,17.27-.42,22.35-4.44a9.85,9.85,0,0,0,4.08-6.75Z" style="fill:#a6a6a6"></path><path d="M176.4,420.1a9.54,9.54,0,0,1,.31,3.31l-1.4-.13a9.83,9.83,0,0,0-2.87-7.34c-4.32-4.83-12.46-8-21.25-8.2-6-.15-14.1,1.91-21.93,3.9-8.14,2.07-15.84,4-21.15,3.57l-58.59-5-.2,2.26-1.4-.12.31-3.67,60,5.17c5.07.44,12.66-1.49,20.69-3.53s16.1-4.09,22.31-3.93c9.16.23,17.69,3.55,22.27,8.66A12.91,12.91,0,0,1,176.4,420.1Z" style="fill:#a6a6a6"></path><path d="M176.71,423.41a5.54,5.54,0,0,1-2.28,3.78c-4.47,3.61-14.65,5.14-25.32,3.79-6.11-.77-13.89-3.25-21.41-5.66s-14.9-4.76-20-5.2l-60-5.18.23-2.64,1.4.12-.11,1.24,58.6,5c5.27.46,12.58,2.79,20.32,5.27,7.46,2.38,15.17,4.85,21.16,5.61,10.15,1.28,20.12-.16,24.25-3.5a4.17,4.17,0,0,0,1.77-2.81Z" style="fill:#a6a6a6"></path><path d="M176.56,421.83a4.47,4.47,0,0,1,.15,1.58l-.06.7L47.85,413l.29-3.35,60,5.17c5.12.45,12.64-.6,20.6-1.7s15.92-2.2,22.08-1.91c10.74.5,20.5,3.74,24.29,8.07A6.55,6.55,0,0,1,176.56,421.83Zm-1.28.74a4.79,4.79,0,0,0-1.23-2.35c-3.5-4-13.08-7.12-23.3-7.59-6-.29-14.05.82-21.81,1.9-8,1.11-15.65,2.16-20.92,1.71l-58.59-5.05,0,.53Z" style="fill:#a6a6a6"></path><polygon points="44.66 418.1 92.02 422.18 93.06 410.12 45.43 406.01 44.66 418.1" style="fill:#37474f"></polygon></g><g id="freepik--speech-bubble--inject-100"><path d="M371.17,164.5a35.13,35.13,0,0,1-58.71,22.23l-17.58,2.58,8.8-15.2a35.14,35.14,0,1,1,67.49-9.61Z" style="fill:#fff"></path><path d="M371.17,164.5a35.34,35.34,0,0,1-7.09,17.81,31.49,31.49,0,0,1-6.89,6.81,34.7,34.7,0,0,1-8.48,4.72,35.31,35.31,0,0,1-9.46,2.26,36.14,36.14,0,0,1-4.88.09,30.46,30.46,0,0,1-4.86-.51,35.41,35.41,0,0,1-17.39-8.58l.42.13L295,189.92l-1.27.2.64-1.12,8.75-15.23,0,.6a35.54,35.54,0,0,1,2.16-31.32,36,36,0,0,1,11-11.72,35.36,35.36,0,0,1,15-5.63,35.12,35.12,0,0,1,29.45,9.78A35.32,35.32,0,0,1,371.17,164.5Zm0,0a34.76,34.76,0,0,0-39.85-38,34.63,34.63,0,0,0-14.51,5.73,36.14,36.14,0,0,0-10.51,11.47,34.48,34.48,0,0,0-4.46,14.87,35.12,35.12,0,0,0,2.47,15.31l.13.31-.17.29-8.85,15.17-.63-.93,17.6-2.46.24,0,.18.17A34.59,34.59,0,0,0,329.63,195a29.46,29.46,0,0,0,4.77.58,35.1,35.1,0,0,0,4.81,0,34.71,34.71,0,0,0,9.38-2.07,32.64,32.64,0,0,0,8.48-4.57,31.81,31.81,0,0,0,6.91-6.73A35.24,35.24,0,0,0,371.17,164.5Z" style="fill:#263238"></path><path d="M351.12,167.47a45.94,45.94,0,0,1-14.76,12.81,46.05,46.05,0,0,1-14.76-12.81c-5.19-6.88-4.94-17.64,2.5-20,8.22-2.58,12.26,9.8,12.26,9.8s4.1-12.46,12.27-9.8C356,149.91,356.32,160.59,351.12,167.47Z" style="fill:#B71E3A"></path></g></svg>